<svg width="77" height="77" viewBox="0 0 77 77" fill="none" xmlns="http://www.w3.org/2000/svg">
<mask id="mask0_727_4044" style="mask-type:alpha" maskUnits="userSpaceOnUse" x="0" y="0" width="77" height="77">
<rect width="76.9755" height="76.9755" fill="#D9D9D9"/>
</mask>
<g mask="url(#mask0_727_4044)">
<path d="M63.7445 67.3535C57.5437 67.3535 51.2226 65.8567 44.7813 62.8632C38.3399 59.8697 32.3663 55.6201 26.8604 50.1142C21.3545 44.6083 17.1048 38.6347 14.1113 32.1933C11.1178 25.7519 9.62109 19.4309 9.62109 13.2301C9.62109 12.1989 9.96481 11.3399 10.6522 10.653C11.3391 9.96554 12.1982 9.62183 13.2293 9.62183H24.4549C25.2033 9.62183 25.8448 9.8891 26.3793 10.4237C26.9139 10.9582 27.288 11.6264 27.5019 12.4282L29.6612 22.5024C29.7718 23.27 29.7604 23.9612 29.6267 24.5759C29.4931 25.1907 29.2063 25.718 28.7664 26.1579L20.7665 34.238C22.1563 36.59 23.6264 38.7817 25.1766 40.813C26.7268 42.8443 28.4373 44.7686 30.3083 46.5861C32.2861 48.6174 34.3709 50.475 36.5625 52.1588C38.7542 53.8427 41.0528 55.3261 43.4583 56.609L51.0756 48.7511C51.6102 48.163 52.2289 47.7621 52.9319 47.5483C53.6348 47.3345 54.3257 47.281 55.0046 47.388L64.5463 49.4727C65.3482 49.6865 66.0164 50.1152 66.5509 50.7588C67.0855 51.403 67.3527 52.1235 67.3527 52.9206V63.7453C67.3527 64.7764 67.009 65.6354 66.3216 66.3223C65.6347 67.0098 64.7757 67.3535 63.7445 67.3535ZM18.361 29.8279L24.8558 23.2529L23.0116 14.4328H14.4321C14.539 16.6779 14.8998 19.0433 15.5145 21.529C16.1293 24.0146 17.0781 26.781 18.361 29.8279ZM47.9485 58.9343C50.1402 59.9499 52.5189 60.7785 55.0848 61.4199C57.6506 62.0614 60.1363 62.4356 62.5418 62.5425V53.9629L54.2829 52.2791L47.9485 58.9343Z" fill="#1C1B1F"/>
</g>
</svg>
