<svg width="77" height="77" viewBox="0 0 77 77" fill="none" xmlns="http://www.w3.org/2000/svg">
<mask id="mask0_727_4050" style="mask-type:alpha" maskUnits="userSpaceOnUse" x="0" y="0" width="77" height="77">
<rect width="76.9755" height="76.9755" fill="#D9D9D9"/>
</mask>
<g mask="url(#mask0_727_4050)">
<path d="M38.4958 37.6859C40.0412 37.6859 41.3618 37.1355 42.4576 36.0349C43.5535 34.9343 44.1014 33.6112 44.1014 32.0658C44.1014 30.5205 43.5511 29.1998 42.4504 28.104C41.3498 27.0082 40.0268 26.4603 38.4814 26.4603C36.936 26.4603 35.6154 27.0106 34.5195 28.1112C33.4237 29.2119 32.8758 30.5349 32.8758 32.0803C32.8758 33.6257 33.4261 34.9463 34.5268 36.0421C35.6274 37.1379 36.9504 37.6859 38.4958 37.6859ZM38.4886 64.2264C45.5981 57.7583 50.8501 51.8916 54.2445 46.6263C57.6389 41.3609 59.3361 36.7237 59.3361 32.7145C59.3361 26.418 57.3238 21.2623 53.2992 17.2473C49.2745 13.2328 44.3377 11.2255 38.4886 11.2255C32.6395 11.2255 27.7027 13.2328 23.678 17.2473C19.6534 21.2623 17.641 26.418 17.641 32.7145C17.641 36.7237 19.3783 41.3609 22.8529 46.6263C26.3275 51.8916 31.5394 57.7583 38.4886 64.2264ZM38.4886 70.5608C29.8823 63.2375 23.4543 56.4353 19.2046 50.1543C14.9549 43.8733 12.8301 38.06 12.8301 32.7145C12.8301 24.6962 15.4093 18.3083 20.5677 13.5508C25.7262 8.79331 31.6998 6.41455 38.4886 6.41455C45.2774 6.41455 51.251 8.79331 56.4095 13.5508C61.5679 18.3083 64.1471 24.6962 64.1471 32.7145C64.1471 38.06 62.0223 43.8733 57.7726 50.1543C53.5229 56.4353 47.0949 63.2375 38.4886 70.5608Z" fill="#1C1B1F"/>
</g>
</svg>
