<svg width="77" height="77" viewBox="0 0 77 77" fill="none" xmlns="http://www.w3.org/2000/svg">
<mask id="mask0_727_4047" style="mask-type:alpha" maskUnits="userSpaceOnUse" x="0" y="0" width="77" height="77">
<rect width="76.9755" height="76.9755" fill="#D9D9D9"/>
</mask>
<g mask="url(#mask0_727_4047)">
<path d="M10.811 63.317C9.52805 63.317 8.40549 62.8359 7.44329 61.8737C6.4811 60.9115 6 59.789 6 58.5061V16.811C6 15.528 6.4811 14.4055 7.44329 13.4433C8.40549 12.4811 9.52805 12 10.811 12H65.3353C66.6182 12 67.7408 12.4811 68.703 13.4433C69.6652 14.4055 70.1463 15.528 70.1463 16.811V58.5061C70.1463 59.789 69.6652 60.9115 68.703 61.8737C67.7408 62.8359 66.6182 63.317 65.3353 63.317H10.811ZM38.0731 39.1018L10.811 21.221V58.5061H65.3353V21.221L38.0731 39.1018ZM38.0731 34.2908L65.0146 16.811H11.2119L38.0731 34.2908ZM10.811 21.221V16.811V58.5061V21.221Z" fill="#1C1B1F"/>
</g>
</svg>
