<svg width="36" height="36" viewBox="0 0 36 36" fill="none" xmlns="http://www.w3.org/2000/svg">
<g clip-path="url(#clip0_833_8775)">
<path d="M18.1133 14.8713V21.5354H27.374C26.9674 23.6785 25.7471 25.4932 23.9168 26.7133L29.5014 31.0465C32.7552 28.0431 34.6324 23.6317 34.6324 18.3912C34.6324 17.1711 34.523 15.9977 34.3195 14.8715L18.1133 14.8713Z" fill="#4285F4"/>
<path d="M8.46989 21.2751L7.21035 22.2393L2.75195 25.712C5.58337 31.3279 11.3866 35.2075 18.1131 35.2075C22.759 35.2075 26.6541 33.6744 29.5013 31.0465L23.9167 26.7132C22.3836 27.7457 20.4282 28.3715 18.1131 28.3715C13.6392 28.3715 9.83798 25.3524 8.47692 21.2851L8.46989 21.2751Z" fill="#34A853"/>
<path d="M2.75202 10.2881C1.57884 12.6032 0.90625 15.2156 0.90625 18.0001C0.90625 20.7845 1.57884 23.397 2.75202 25.7121C2.75202 25.7276 8.47753 21.2694 8.47753 21.2694C8.13339 20.237 7.92997 19.142 7.92997 17.9999C7.92997 16.8578 8.13339 15.7628 8.47753 14.7304L2.75202 10.2881Z" fill="#FBBC05"/>
<path d="M18.1135 7.64421C20.6477 7.64421 22.9003 8.52021 24.6993 10.2097L29.6268 5.28214C26.639 2.4977 22.7596 0.79248 18.1135 0.79248C11.3869 0.79248 5.58337 4.65635 2.75195 10.2879L8.4773 14.7306C9.83817 10.6633 13.6395 7.64421 18.1135 7.64421Z" fill="#EA4335"/>
</g>
<defs>
<clipPath id="clip0_833_8775">
<rect width="34.4151" height="34.4151" fill="white" transform="translate(0.90625 0.79248)"/>
</clipPath>
</defs>
</svg>
