<svg width="36" height="36" viewBox="0 0 36 36" fill="none" xmlns="http://www.w3.org/2000/svg">
<g clip-path="url(#clip0_833_7130)">
<path d="M32.0977 27.7637C31.5773 28.966 30.9612 30.0728 30.2474 31.0904C29.2745 32.4775 28.4779 33.4377 27.8639 33.9709C26.9123 34.8462 25.8926 35.2944 24.8007 35.3199C24.0168 35.3199 23.0715 35.0968 21.9711 34.6443C20.8671 34.194 19.8525 33.9709 18.9248 33.9709C17.9519 33.9709 16.9084 34.194 15.7923 34.6443C14.6745 35.0968 13.774 35.3326 13.0855 35.356C12.0384 35.4006 10.9947 34.9396 9.95295 33.9709C9.28804 33.391 8.45637 32.3968 7.46006 30.9884C6.3911 29.4844 5.51227 27.7403 4.82378 25.7519C4.08643 23.6042 3.7168 21.5245 3.7168 19.5111C3.7168 17.2047 4.21516 15.2155 5.21338 13.5485C5.99789 12.2096 7.04157 11.1534 8.34781 10.378C9.65406 9.6026 11.0655 9.20747 12.5854 9.18219C13.4171 9.18219 14.5077 9.43945 15.863 9.94504C17.2145 10.4523 18.0823 10.7096 18.4628 10.7096C18.7472 10.7096 19.7112 10.4088 21.3455 9.80908C22.8909 9.25293 24.1952 9.02266 25.2638 9.11337C28.1592 9.34704 30.3345 10.4884 31.7812 12.5448C29.1916 14.1138 27.9107 16.3114 27.9362 19.1306C27.9595 21.3265 28.7562 23.1539 30.3218 24.6048C31.0313 25.2782 31.8237 25.7987 32.7053 26.1683C32.5141 26.7227 32.3123 27.2538 32.0977 27.7637V27.7637ZM25.4571 1.63235C25.4571 3.35349 24.8283 4.96052 23.5749 6.44798C22.0624 8.21626 20.233 9.23806 18.2491 9.07683C18.2238 8.87034 18.2091 8.65303 18.2091 8.42466C18.2091 6.77236 18.9284 5.00407 20.2058 3.55826C20.8435 2.82622 21.6546 2.21753 22.6381 1.73198C23.6196 1.25366 24.5479 0.989145 25.421 0.943848C25.4465 1.17394 25.4571 1.40404 25.4571 1.63232V1.63235Z" fill="black"/>
</g>
<defs>
<clipPath id="clip0_833_7130">
<rect width="34.4151" height="34.4151" fill="white" transform="translate(0.849609 0.943359)"/>
</clipPath>
</defs>
</svg>
